<?xml version="1.0" encoding="UTF-8"?>
<svg version="1.1" xmlns="http://www.w3.org/2000/svg" width="500" height="500">
<path d="M0 0 C1.109375 1.40625 1.109375 1.40625 1.109375 3.40625 C1.769375 3.40625 2.429375 3.40625 3.109375 3.40625 C3.604375 6.87125 3.604375 6.87125 4.109375 10.40625 C1.23167513 12.61845665 -1.67032375 14.79630635 -4.578125 16.96875 C-5.80305664 17.91137695 -5.80305664 17.91137695 -7.05273438 18.87304688 C-7.84873047 19.46279297 -8.64472656 20.05253906 -9.46484375 20.66015625 C-10.19276123 21.21002197 -10.92067871 21.7598877 -11.6706543 22.32641602 C-14.54742525 23.72572955 -15.9003091 23.42837996 -18.890625 22.40625 C-20.34981941 21.17404139 -21.80764609 19.93995943 -23.24609375 18.68359375 C-29.5733018 13.76911149 -37.19184753 13.6538929 -44.890625 14.40625 C-48.07155604 15.04441501 -49.98492454 15.81633843 -52.890625 17.40625 C-54.30092204 20.72459598 -54.03304692 21.97898425 -52.890625 25.40625 C-50.78386347 26.33057215 -50.78386347 26.33057215 -48.16015625 26.890625 C-47.16193848 27.13876953 -46.1637207 27.38691406 -45.13525391 27.64257812 C-44.06452637 27.89458984 -42.99379883 28.14660156 -41.890625 28.40625 C-14.6136349 35.02941693 -14.6136349 35.02941693 -6.890625 39.65625 C-2.68952486 42.09375197 -2.68952486 42.09375197 1.9609375 41.8359375 C4.7621654 40.56779484 4.7621654 40.56779484 7.421875 38.96484375 C18.28061013 32.6674087 33.43358366 32.89162622 45.421875 35.53125 C60.27181984 39.87608276 70.95897436 47.84073193 78.421875 61.34375 C80.44663057 65.56969213 80.89453757 69.76576144 81.109375 74.40625 C78.73461666 74.88664005 76.35958345 75.36559474 73.984375 75.84375 C73.31921875 75.97845703 72.6540625 76.11316406 71.96875 76.25195312 C65.80346607 77.49105431 60.03715193 78.53878085 53.734375 78.46875 C52.67476562 78.45972656 51.61515625 78.45070313 50.5234375 78.44140625 C49.32847656 78.42400391 49.32847656 78.42400391 48.109375 78.40625 C47.76326172 77.30216797 47.76326172 77.30216797 47.41015625 76.17578125 C45.10317416 69.27307199 43.1856347 64.49177822 36.421875 61.03125 C30.26281385 59.86916299 25.13119072 60.22992085 19.671875 63.40625 C10.23647516 74.45257176 12.4841502 92.88436304 13.109375 106.40625 C13.8118779 113.92790299 15.39079417 120.2455795 21.109375 125.40625 C24.55749962 127.61304975 27.49724075 127.70470503 31.546875 127.71875 C33.21556641 127.74388672 33.21556641 127.74388672 34.91796875 127.76953125 C38.45982052 127.3663584 40.27334843 126.52706147 43.109375 124.40625 C45.35104202 121.41736063 46.92803328 118.95027516 48.109375 115.40625 C46.42908203 115.44105469 46.42908203 115.44105469 44.71484375 115.4765625 C43.24219416 115.49532237 41.76953737 115.51352234 40.296875 115.53125 C39.55888672 115.54800781 38.82089844 115.56476563 38.06054688 115.58203125 C34.19691074 115.61699628 32.40033832 115.60022555 29.109375 113.40625 C28.75292969 111.45092773 28.75292969 111.45092773 28.78125 109.08984375 C28.78640625 108.24357422 28.7915625 107.39730469 28.796875 106.52539062 C28.8175 105.64044922 28.838125 104.75550781 28.859375 103.84375 C28.86453125 102.95494141 28.8696875 102.06613281 28.875 101.15039062 C28.95542954 94.56019546 28.95542954 94.56019546 30.109375 93.40625 C31.65840369 93.29738105 33.21233404 93.25720708 34.76513672 93.24511719 C36.25205521 93.23070587 36.25205521 93.23070587 37.76901245 93.21600342 C38.84812897 93.21175354 39.92724548 93.20750366 41.0390625 93.203125 C42.14033478 93.19742493 43.24160706 93.19172485 44.37625122 93.18585205 C46.71159906 93.17638523 49.04696036 93.16986143 51.38232422 93.16601562 C54.96215034 93.15631025 58.54140255 93.12530216 62.12109375 93.09375 C64.38541324 93.08722037 66.64973686 93.08196974 68.9140625 93.078125 C69.98913055 93.0657782 71.06419861 93.0534314 72.17184448 93.04071045 C73.1694278 93.04371155 74.16701111 93.04671265 75.19482422 93.04980469 C76.07339081 93.04615906 76.9519574 93.04251343 77.85714722 93.03875732 C80.109375 93.40625 80.109375 93.40625 81.89425659 94.59941101 C83.54646392 97.05618609 83.47718524 98.72114788 83.46582031 101.67211914 C83.47032196 103.28377708 83.47032196 103.28377708 83.47491455 104.92799377 C83.45639435 106.66713295 83.45639435 106.66713295 83.4375 108.44140625 C83.43562683 109.63100449 83.43375366 110.82060272 83.43182373 112.04624939 C83.42509752 114.5621928 83.41117187 117.07812564 83.390625 119.59399414 C83.35947266 123.45664119 83.34965523 127.31888042 83.34375 131.18164062 C83.33458019 133.62240084 83.3242045 136.06315688 83.3125 138.50390625 C83.30825012 139.6653566 83.30400024 140.82680695 83.29962158 142.02345276 C83.29001404 143.09473923 83.28040649 144.1660257 83.27050781 145.26977539 C83.26026581 146.68849693 83.26026581 146.68849693 83.24981689 148.13587952 C83.109375 150.40625 83.109375 150.40625 82.109375 152.40625 C77.92393794 153.09684712 74.26617553 153.35420329 70.109375 152.40625 C66.68870705 149.15661544 64.38099866 145.52189756 62.109375 141.40625 C58.98290549 142.17860488 58.98290549 142.17860488 57.046875 144.65625 C49.78194957 152.29886269 39.15139063 154.06525787 29.12255859 154.38378906 C13.88096803 154.55383834 0.40984026 149.73032945 -10.890625 139.40625 C-18.80861698 130.19022655 -24.83509452 118.70625143 -24.890625 106.40625 C-25.880625 106.90125 -25.880625 106.90125 -26.890625 107.40625 C-46.22931127 110.00398398 -67.64674825 107.46700748 -84.12109375 96.55859375 C-87.73931363 93.74669086 -91.20342888 90.7633905 -92.890625 86.40625 C-92.87890625 83.921875 -92.87890625 83.921875 -91.890625 81.40625 C-89.37890625 79.30859375 -89.37890625 79.30859375 -86.203125 77.34375 C-85.16800781 76.69277344 -84.13289062 76.04179687 -83.06640625 75.37109375 C-82.01839844 74.72269531 -80.97039062 74.07429688 -79.890625 73.40625 C-78.87355469 72.66503906 -77.85648438 71.92382812 -76.80859375 71.16015625 C-73.71160687 69.2986474 -72.40668018 68.64539872 -68.890625 69.40625 C-66.8203125 71.234375 -66.8203125 71.234375 -64.765625 73.65625 C-58.63652388 80.09992419 -52.10569452 82.52274189 -43.265625 82.84375 C-36.82217259 82.59450471 -31.25404156 80.98186104 -25.890625 77.40625 C-25.14001651 74.49242271 -25.14001651 74.49242271 -25.890625 71.40625 C-30.7729873 67.2633986 -35.91347237 66.15665854 -42.078125 64.84375 C-43.96374646 64.4162669 -45.84916568 63.98789074 -47.734375 63.55859375 C-48.63027344 63.35862793 -49.52617187 63.15866211 -50.44921875 62.95263672 C-63.97920049 59.92462681 -75.82645844 55.69997475 -84.203125 44.09375 C-89.08196264 36.32664047 -90.04106661 27.50275079 -88.35546875 18.5703125 C-87.05217836 13.25744566 -85.70062526 9.47025028 -81.890625 5.40625 C-81.560625 4.41625 -81.230625 3.42625 -80.890625 2.40625 C-61.39660503 -16.66050378 -20.92710776 -17.64103299 0 0 Z " fill="#F5F5F5" transform="translate(245.890625,143.59375)"/>
</svg>
