<?xml version="1.0" encoding="UTF-8"?>
<svg version="1.1" xmlns="http://www.w3.org/2000/svg" width="500" height="500">
<path d="M0 0 C5.29269157 5.29269157 5.29269157 5.29269157 5.74291992 8.85205078 C5.4375 11.4375 5.4375 11.4375 3.86450195 13.21435547 C3.14222412 13.73916504 2.41994629 14.26397461 1.67578125 14.8046875 C0.88623047 15.37960938 0.09667969 15.95453125 -0.71679688 16.546875 C-1.55275391 17.12953125 -2.38871094 17.7121875 -3.25 18.3125 C-4.06662109 18.91835937 -4.88324219 19.52421875 -5.72460938 20.1484375 C-11.84100961 24.5066822 -11.84100961 24.5066822 -15.22827148 24.18188477 C-17.82459386 23.35391835 -19.02283463 22.40999546 -20.9375 20.5 C-27.01295647 15.0866125 -33.60089107 15.04275836 -41.453125 15.1875 C-45.60918157 15.5216553 -48.07591294 16.13952217 -51.5625 18.4375 C-52.88151591 20.86160136 -52.88151591 20.86160136 -52.5625 23.4375 C-50.0911973 26.89018644 -46.68822322 27.56974979 -42.75 28.75 C-41.71613159 29.06529663 -41.71613159 29.06529663 -40.66137695 29.38696289 C-36.46409178 30.64720825 -32.24407219 31.79110385 -28 32.8828125 C-26.08302407 33.3790151 -24.16635782 33.87641555 -22.25 34.375 C-20.83219238 34.74298706 -20.83219238 34.74298706 -19.38574219 35.1184082 C-13.14089537 36.81141407 -8.04189281 38.84459567 -2.68359375 42.53125 C-0.55315282 43.70566901 -0.55315282 43.70566901 1.8125 42.75390625 C2.67875 42.31949219 3.545 41.88507813 4.4375 41.4375 C6.58060225 40.57650398 8.72661003 39.72271571 10.875 38.875 C11.96683594 38.44058594 13.05867188 38.00617188 14.18359375 37.55859375 C28.62711282 32.58225525 45.21197814 34.86635355 58.75 41.25 C63.57570127 43.80441293 67.61479406 46.54582772 71.4375 50.4375 C71.95828125 50.93636719 72.4790625 51.43523437 73.015625 51.94921875 C78.31561464 57.4767332 82.26670432 65.10230366 82.5703125 72.80859375 C82.50457031 74.10990234 82.50457031 74.10990234 82.4375 75.4375 C59.63622014 80.21303612 59.63622014 80.21303612 50.4375 79.4375 C49.97859375 78.46167969 49.5196875 77.48585938 49.046875 76.48046875 C48.42762326 75.19505225 47.8078015 73.90991025 47.1875 72.625 C46.88714844 71.98240234 46.58679688 71.33980469 46.27734375 70.67773438 C44.50063373 67.02980849 43.07791114 64.35600345 39.4375 62.4375 C32.80360406 60.83236132 27.31871093 60.93379987 21.4375 64.4375 C20.7775 65.4275 20.1175 66.4175 19.4375 67.4375 C18.7775 67.4375 18.1175 67.4375 17.4375 67.4375 C13.1018456 83.30909201 10.83302205 104.92920734 17.4375 120.4375 C19.9060514 124.38988011 21.97054403 126.94851468 26.4375 128.4375 C28.53913415 128.55815456 30.64494033 128.61286009 32.75 128.625 C33.85988281 128.63917969 34.96976562 128.65335938 36.11328125 128.66796875 C39.57322545 128.42809013 42.2509165 127.79448857 45.4375 126.4375 C46.79086433 124.1379039 46.79086433 124.1379039 47.4375 121.4375 C48.09318478 119.76648244 48.75837516 118.09912922 49.4375 116.4375 C47.75720703 116.47230469 47.75720703 116.47230469 46.04296875 116.5078125 C44.57031916 116.52657237 43.09766237 116.54477234 41.625 116.5625 C40.88701172 116.57925781 40.14902344 116.59601563 39.38867188 116.61328125 C35.52503574 116.64824628 33.72846332 116.63147555 30.4375 114.4375 C30.08105469 112.48217773 30.08105469 112.48217773 30.109375 110.12109375 C30.11453125 109.27482422 30.1196875 108.42855469 30.125 107.55664062 C30.145625 106.67169922 30.16625 105.78675781 30.1875 104.875 C30.19265625 103.98619141 30.1978125 103.09738281 30.203125 102.18164062 C30.28355454 95.59144546 30.28355454 95.59144546 31.4375 94.4375 C32.98652869 94.32863105 34.54045904 94.28845708 36.09326172 94.27636719 C37.58018021 94.26195587 37.58018021 94.26195587 39.09713745 94.24725342 C40.17625397 94.24300354 41.25537048 94.23875366 42.3671875 94.234375 C43.46845978 94.22867493 44.56973206 94.22297485 45.70437622 94.21710205 C48.03972406 94.20763523 50.37508536 94.20111143 52.71044922 94.19726562 C56.29027534 94.18756025 59.86952755 94.15655216 63.44921875 94.125 C65.71353824 94.11847037 67.97786186 94.11321974 70.2421875 94.109375 C71.31725555 94.0970282 72.39232361 94.0846814 73.49996948 94.07196045 C74.4975528 94.07496155 75.49513611 94.07796265 76.52294922 94.08105469 C77.40151581 94.07740906 78.2800824 94.07376343 79.18527222 94.07000732 C81.4375 94.4375 81.4375 94.4375 83.22238159 95.63066101 C84.87458892 98.08743609 84.80531024 99.75239788 84.79394531 102.70336914 C84.79844696 104.31502708 84.79844696 104.31502708 84.80303955 105.95924377 C84.78451935 107.69838295 84.78451935 107.69838295 84.765625 109.47265625 C84.76375183 110.66225449 84.76187866 111.85185272 84.75994873 113.07749939 C84.75322252 115.5934428 84.73929687 118.10937564 84.71875 120.62524414 C84.68759766 124.48789119 84.67778023 128.35013042 84.671875 132.21289062 C84.66270519 134.65365084 84.6523295 137.09440688 84.640625 139.53515625 C84.63637512 140.6966066 84.63212524 141.85805695 84.62774658 143.05470276 C84.61813904 144.12598923 84.60853149 145.1972757 84.59863281 146.30102539 C84.58839081 147.71974693 84.58839081 147.71974693 84.57794189 149.16712952 C84.4375 151.4375 84.4375 151.4375 83.4375 153.4375 C73.51813542 154.21923626 73.51813542 154.21923626 69.5 151.3125 C67.40219271 148.38828377 65.3513052 145.48541199 63.4375 142.4375 C61.45258358 142.70426204 61.45258358 142.70426204 59.4375 143.4375 C59.1075 144.4275 58.7775 145.4175 58.4375 146.4375 C56.36328125 147.97265625 56.36328125 147.97265625 53.75 149.5 C52.90050781 150.00660156 52.05101562 150.51320313 51.17578125 151.03515625 C39.63690033 156.94451181 24.78352803 156.54016673 12.4375 153.4375 C6.41862104 151.13436515 0.79291893 148.00777928 -4.5625 144.4375 C-4.5625 143.7775 -4.5625 143.1175 -4.5625 142.4375 C-5.18125 142.19 -5.8 141.9425 -6.4375 141.6875 C-8.91318687 140.23121361 -9.51375002 139.05937494 -10.5625 136.4375 C-11.2225 136.4375 -11.8825 136.4375 -12.5625 136.4375 C-18.67461332 128.49712991 -24.07807213 117.56697593 -23.5625 107.4375 C-24.5525 107.9325 -24.5525 107.9325 -25.5625 108.4375 C-44.24111518 110.94656771 -65.36200314 108.62209423 -81.4375 98.11328125 C-86.08139597 94.45109123 -90.48285035 90.43555361 -91.5625 84.4375 C-76.81412839 71.02988944 -76.81412839 71.02988944 -69.87109375 70.0625 C-66.30313175 70.64206743 -64.81048155 72.73992214 -62.5625 75.4375 C-62.5625 76.0975 -62.5625 76.7575 -62.5625 77.4375 C-61.758125 77.8396875 -61.758125 77.8396875 -60.9375 78.25 C-59.15399144 79.14175428 -57.38546802 80.06358084 -55.625 81 C-48.1903786 84.48972025 -39.32913704 84.57523551 -31.5625 82.0625 C-28.85078796 81.07551657 -27.01088796 80.06975864 -24.5625 78.4375 C-23.81189151 75.52367271 -23.81189151 75.52367271 -24.5625 72.4375 C-29.7541593 67.90917026 -35.85191973 66.8285471 -42.4375 65.3125 C-43.48808594 65.06113281 -44.53867188 64.80976563 -45.62109375 64.55078125 C-49.37995634 63.65222962 -53.13993899 62.7598406 -56.90917969 61.90576172 C-68.18135586 59.26742289 -77.7160504 52.84493124 -83.9375 43 C-88.24552731 33.55547859 -88.67103433 24.16648717 -85.7265625 14.24609375 C-81.45300358 3.9350573 -72.88045129 -2.07833128 -63.1875 -6.8125 C-44.61579287 -14.45779968 -15.95522868 -12.74066172 0 0 Z " fill="#F6F6F6" transform="translate(244.5625,142.5625)"/>
<path d="M0 0 C1.65 0 3.3 0 5 0 C5 2.64 5 5.28 5 8 C7.31 8 9.62 8 12 8 C11.979375 6.865625 11.95875 5.73125 11.9375 4.5625 C12 1 12 1 13 0 C14.65 0 16.3 0 18 0 C18 6.6 18 13.2 18 20 C16.02 20 14.04 20 12 20 C12 18.02 12 16.04 12 14 C9.69 13.67 7.38 13.34 5 13 C5 15.31 5 17.62 5 20 C3.35 20 1.7 20 0 20 C0 13.4 0 6.8 0 0 Z " fill="#CCCCCC" transform="translate(153,323)"/>
<path d="M0 0 C5 0 5 0 7.01953125 1.96875 C7.61121094 2.8040625 8.20289063 3.639375 8.8125 4.5 C9.41707031 5.3353125 10.02164062 6.170625 10.64453125 7.03125 C11.09183594 7.6809375 11.53914063 8.330625 12 9 C12.33 6.03 12.66 3.06 13 0 C14.65 0 16.3 0 18 0 C18 6.27 18 12.54 18 19 C13 19 13 19 10.98046875 17.03125 C10.38878906 16.1959375 9.79710937 15.360625 9.1875 14.5 C8.28064453 13.24703125 8.28064453 13.24703125 7.35546875 11.96875 C6.90816406 11.3190625 6.46085937 10.669375 6 10 C5.67 12.97 5.34 15.94 5 19 C3.35 19 1.7 19 0 19 C0 12.73 0 6.46 0 0 Z " fill="#DFDFDF" transform="translate(277,324)"/>
<path d="M0 0 C4.44655242 0.04807084 7.45965749 1.17247132 11.375 3.25 C12.8533226 6.20664519 12.43532783 8.99229737 12.375 12.25 C11.385 12.58 10.395 12.91 9.375 13.25 C9.849375 14.03375 10.32375 14.8175 10.8125 15.625 C11.71398023 17.13948678 12.58679485 18.6735897 13.375 20.25 C7.875 20.61666667 7.875 20.61666667 5.5 18.875 C4.375 17.25 4.375 17.25 4.375 15.25 C3.055 15.25 1.735 15.25 0.375 15.25 C0.375 16.9 0.375 18.55 0.375 20.25 C-1.275 20.25 -2.925 20.25 -4.625 20.25 C-4.65388514 17.10418577 -4.67175923 13.95840531 -4.6875 10.8125 C-4.69587891 9.91466797 -4.70425781 9.01683594 -4.71289062 8.09179688 C-4.71611328 7.23779297 -4.71933594 6.38378906 -4.72265625 5.50390625 C-4.73051147 4.31776733 -4.73051147 4.31776733 -4.73852539 3.10766602 C-4.52888132 -0.3228324 -3.56018548 0.24553003 0 0 Z M0.375 5.25 C0.375 7.23 0.375 9.21 0.375 11.25 C2.355 11.25 4.335 11.25 6.375 11.25 C6.705 9.6 7.035 7.95 7.375 6.25 C5.065 5.92 2.755 5.59 0.375 5.25 Z " fill="#DADADA" transform="translate(332.625,322.75)"/>
<path d="M0 0 C2.875 1.5 2.875 1.5 5 3 C4.34 4.32 3.68 5.64 3 7 C0.98177083 6.70703125 -1.03645833 6.4140625 -3.0546875 6.12109375 C-5.08140667 5.8315703 -5.08140667 5.8315703 -7 7 C-7.84298574 9.38084878 -7.84298574 9.38084878 -8 12 C-6.29107501 15.31460705 -6.29107501 15.31460705 -2.875 15.6875 C-1.92625 15.790625 -0.9775 15.89375 0 16 C0 14.02 0 12.04 0 10 C1.65 10 3.3 10 5 10 C5.1953125 16.0546875 5.1953125 16.0546875 5 18 C2.26697264 20.73302736 0.07761177 20.69277978 -3.67578125 21.03125 C-7.11053839 20.98506839 -9.22271919 19.96441814 -12 18 C-14.62998478 14.65274664 -14.43342998 11.1175848 -14 7 C-10.39917013 1.21295199 -6.77093497 -0.69091173 0 0 Z " fill="#CECECE" transform="translate(248,323)"/>
<path d="M0 0 C4.62 0 9.24 0 14 0 C14.33 1.65 14.66 3.3 15 5 C11.7 5 8.4 5 5 5 C5 5.99 5 6.98 5 8 C7.97 8 10.94 8 14 8 C14 9.32 14 10.64 14 12 C11.03 12 8.06 12 5 12 C5 13.32 5 14.64 5 16 C8.63 16 12.26 16 16 16 C16 17.32 16 18.64 16 20 C10.72 20 5.44 20 0 20 C0 13.4 0 6.8 0 0 Z " fill="#CDCDCD" transform="translate(193,323)"/>
<path d="M0 0 C1.93166016 0.01740234 1.93166016 0.01740234 3.90234375 0.03515625 C5.19269531 0.04417969 6.48304688 0.05320312 7.8125 0.0625 C8.81152344 0.07410156 9.81054688 0.08570313 10.83984375 0.09765625 C10.83984375 1.74765625 10.83984375 3.39765625 10.83984375 5.09765625 C7.53984375 5.09765625 4.23984375 5.09765625 0.83984375 5.09765625 C0.83984375 6.08765625 0.83984375 7.07765625 0.83984375 8.09765625 C3.80984375 8.09765625 6.77984375 8.09765625 9.83984375 8.09765625 C9.83984375 9.41765625 9.83984375 10.73765625 9.83984375 12.09765625 C6.86984375 12.09765625 3.89984375 12.09765625 0.83984375 12.09765625 C0.83984375 13.41765625 0.83984375 14.73765625 0.83984375 16.09765625 C4.13984375 16.09765625 7.43984375 16.09765625 10.83984375 16.09765625 C10.83984375 17.41765625 10.83984375 18.73765625 10.83984375 20.09765625 C5.88984375 20.09765625 0.93984375 20.09765625 -4.16015625 20.09765625 C-4.18699322 16.95176681 -4.20691527 13.80610354 -4.22265625 10.66015625 C-4.23103516 9.76232422 -4.23941406 8.86449219 -4.24804688 7.93945312 C-4.25126953 7.08544922 -4.25449219 6.23144531 -4.2578125 5.3515625 C-4.26566772 4.16542358 -4.26566772 4.16542358 -4.27368164 2.95532227 C-4.07526837 -0.29140153 -3.31593087 0.10247005 0 0 Z " fill="#D0D0D0" transform="translate(179.16015625,322.90234375)"/>
<path d="M0 0 C0.33 0.66 0.66 1.32 1 2 C0.67 2.99 0.34 3.98 0 5 C-2.97 4.67 -5.94 4.34 -9 4 C-7.64639283 6.70721435 -6.29542607 6.77306151 -3.5 7.8125 C0.82593214 9.66844218 0.82593214 9.66844218 2.3125 12.5 C1.89162023 15.86703814 0.60594505 16.91524396 -2 19 C-4.48541343 20.24270671 -5.76415379 19.95365685 -8.5 19.625 C-9.2940625 19.53476562 -10.088125 19.44453125 -10.90625 19.3515625 C-13 19 -13 19 -15 18 C-14.67 16.35 -14.34 14.7 -14 13 C-13.16855469 13.2165625 -13.16855469 13.2165625 -12.3203125 13.4375 C-11.59585938 13.623125 -10.87140625 13.80875 -10.125 14 C-9.40570313 14.185625 -8.68640625 14.37125 -7.9453125 14.5625 C-6.00710683 15.07313965 -6.00710683 15.07313965 -4 15 C-4.80353553 12.86054904 -4.80353553 12.86054904 -6.77734375 12.21875 C-7.49019531 11.9815625 -8.20304688 11.744375 -8.9375 11.5 C-11.70455204 10.57597536 -12.89137369 10.10862631 -15 8 C-14.92278597 4.37094045 -14.63957949 2.61959263 -12 0.0625 C-7.9063048 -1.38735039 -4.18319981 -1.14951565 0 0 Z " fill="#BFBFBF" transform="translate(149,324)"/>
<path d="M0 0 C1.65 0 3.3 0 5 0 C6.31495542 2.60295276 7.62704986 5.20728033 8.9375 7.8125 C9.31068359 8.55048828 9.68386719 9.28847656 10.06835938 10.04882812 C10.60493164 11.11713867 10.60493164 11.11713867 11.15234375 12.20703125 C11.48226318 12.8616333 11.81218262 13.51623535 12.15209961 14.19067383 C13 16 13 16 14 19 C12.02 19 10.04 19 8 19 C7.67 18.34 7.34 17.68 7 17 C4.87423218 16.53348793 4.87423218 16.53348793 2.4375 16.375 C1.61121094 16.30023438 0.78492188 16.22546875 -0.06640625 16.1484375 C-0.70449219 16.09945313 -1.34257812 16.05046875 -2 16 C-2.33 16.99 -2.66 17.98 -3 19 C-4.65 19 -6.3 19 -8 19 C-6.00386732 12.2813095 -3.2708579 6.19265192 0 0 Z M2 6 C1.34 7.65 0.68 9.3 0 11 C1.65 11 3.3 11 5 11 C4.34 9.35 3.68 7.7 3 6 C2.67 6 2.34 6 2 6 Z " fill="#D4D4D4" transform="translate(262,324)"/>
<path d="M0 0 C2.82572058 1.03293147 3.82978305 1.67952982 5.265625 4.3828125 C6.17708333 6.921875 7.08854167 9.4609375 8 12 C9.98 8.37 11.96 4.74 14 1 C15.65 1 17.3 1 19 1 C18.04381086 3.4175348 17.08513489 5.83403266 16.125 8.25 C15.85558594 8.93191406 15.58617187 9.61382812 15.30859375 10.31640625 C13.9954778 13.61520973 12.66598286 16.86212936 11 20 C9.02 20 7.04 20 5 20 C2.36 14.06 -0.28 8.12 -3 2 C-2.01 1.34 -1.02 0.68 0 0 Z " fill="#D3D3D3" transform="translate(299,323)"/>
<path d="M0 0 C3.63 0 7.26 0 11 0 C11.33 1.32 11.66 2.64 12 4 C12.66 2.68 13.32 1.36 14 0 C17.3 0 20.6 0 24 0 C24 0.66 24 1.32 24 2 C22.68 2 21.36 2 20 2 C20 2.66 20 3.32 20 4 C20.99 3.67 21.98 3.34 23 3 C23.68707555 5.49064888 24 7.37886292 24 10 C21.69 10 19.38 10 17 10 C16.67 8.35 16.34 6.7 16 5 C15.34 6.65 14.68 8.3 14 10 C12.125 9.875 12.125 9.875 10 9 C8.75 5.9375 8.75 5.9375 8 3 C6.95550089 6.13349732 7.06576355 6.98968256 8 10 C5.36 10 2.72 10 0 10 C0 6.7 0 3.4 0 0 Z " fill="#919191" transform="translate(255,359)"/>
<path d="M0 0 C2.475 0.495 2.475 0.495 5 1 C5 5.95 5 10.9 5 16 C8.3 16 11.6 16 15 16 C15 17.32 15 18.64 15 20 C10.05 20 5.1 20 0 20 C0 13.4 0 6.8 0 0 Z " fill="#D6D6D6" transform="translate(211,323)"/>
<path d="M0 0 C0.33 0.66 0.66 1.32 1 2 C0.67 2.99 0.34 3.98 0 5 C-2.97 4.67 -5.94 4.34 -9 4 C-8.67 6.31 -8.34 8.62 -8 11 C-12.75 10.25 -12.75 10.25 -15 8 C-14.92278597 4.37094045 -14.63957949 2.61959263 -12 0.0625 C-7.9063048 -1.38735039 -4.18319981 -1.14951565 0 0 Z " fill="#C8C8C8" transform="translate(149,324)"/>
<path d="M0 0 C1.32 0 2.64 0 4 0 C4 6.6 4 13.2 4 20 C2.35 20 0.7 20 -1 20 C-1.02888514 16.85418577 -1.04675923 13.70840531 -1.0625 10.5625 C-1.07087891 9.66466797 -1.07925781 8.76683594 -1.08789062 7.84179688 C-1.09111328 6.98779297 -1.09433594 6.13378906 -1.09765625 5.25390625 C-1.10551147 4.06776733 -1.10551147 4.06776733 -1.11352539 2.85766602 C-1 1 -1 1 0 0 Z " fill="#D1D1D1" transform="translate(320,323)"/>
<path d="M0 0 C1.39456452 0.00667256 2.78911118 0.01863093 4.18359375 0.03515625 C4.89451172 0.03966797 5.60542969 0.04417969 6.33789062 0.04882812 C8.09899388 0.06064761 9.86005411 0.07858362 11.62109375 0.09765625 C11.62109375 0.75765625 11.62109375 1.41765625 11.62109375 2.09765625 C10.63109375 2.09765625 9.64109375 2.09765625 8.62109375 2.09765625 C8.62109375 4.73765625 8.62109375 7.37765625 8.62109375 10.09765625 C7.63109375 10.09765625 6.64109375 10.09765625 5.62109375 10.09765625 C5.62109375 7.45765625 5.62109375 4.81765625 5.62109375 2.09765625 C3.97109375 2.42765625 2.32109375 2.75765625 0.62109375 3.09765625 C1.61109375 3.75765625 2.60109375 4.41765625 3.62109375 5.09765625 C3.29109375 6.41765625 2.96109375 7.73765625 2.62109375 9.09765625 C-2.12890625 10.22265625 -2.12890625 10.22265625 -4.37890625 9.09765625 C-4.19328125 8.52015625 -4.00765625 7.94265625 -3.81640625 7.34765625 C-3.33708246 4.88256246 -3.72163788 3.48025407 -4.37890625 1.09765625 C-3.37890625 0.09765625 -3.37890625 0.09765625 0 0 Z " fill="#9C9C9C" transform="translate(203.37890625,358.90234375)"/>
<path d="M0 0 C3.3 0 6.6 0 10 0 C10 0.66 10 1.32 10 2 C8.68 2 7.36 2 6 2 C6 2.66 6 3.32 6 4 C6.99 3.67 7.98 3.34 9 3 C9.68707555 5.49064888 10 7.37886292 10 10 C7.69 10 5.38 10 3 10 C2.67 8.35 2.34 6.7 2 5 C1.34 6.65 0.68 8.3 0 10 C-0.99 10 -1.98 10 -3 10 C-3 9.01 -3 8.02 -3 7 C-2.34 7 -1.68 7 -1 7 C-0.67 4.69 -0.34 2.38 0 0 Z " fill="#9F9F9F" transform="translate(269,359)"/>
<path d="M0 0 C0.99 0 1.98 0 3 0 C3.33 1.65 3.66 3.3 4 5 C4.66 5 5.32 5 6 5 C6.33 3.35 6.66 1.7 7 0 C7.99 0 8.98 0 10 0 C10 3.3 10 6.6 10 10 C6.66666667 10 3.33333333 10 0 10 C0 6.7 0 3.4 0 0 Z " fill="#A9A9A9" transform="translate(158,359)"/>
<path d="M0 0 C3.69230769 0.69230769 3.69230769 0.69230769 5 2 C5 1.34 5 0.68 5 0 C5.99 0 6.98 0 8 0 C8 3.3 8 6.6 8 10 C7.01 10 6.02 10 5 10 C4.34 9.01 3.68 8.02 3 7 C2.67 7.99 2.34 8.98 2 10 C1.01 9.67 0.02 9.34 -1 9 C-1.09765625 2.84765625 -1.09765625 2.84765625 -1 1 C-0.67 0.67 -0.34 0.34 0 0 Z " fill="#A6A6A6" transform="translate(187,359)"/>
<path d="M0 0 C1.134375 0.020625 2.26875 0.04125 3.4375 0.0625 C4.81875018 2.82500036 4.62829306 5.00981099 4.4375 8.0625 C2.4375 10.0625 2.4375 10.0625 -0.0625 10.3125 C-2.5625 10.0625 -2.5625 10.0625 -4.5625 8.0625 C-4.75 4.5 -4.75 4.5 -4.5625 1.0625 C-3.5625 0.0625 -3.5625 0.0625 0 0 Z M-1.5625 2.0625 C-1.5625 3.7125 -1.5625 5.3625 -1.5625 7.0625 C-0.5725 7.0625 0.4175 7.0625 1.4375 7.0625 C1.4375 5.4125 1.4375 3.7625 1.4375 2.0625 C0.4475 2.0625 -0.5425 2.0625 -1.5625 2.0625 Z " fill="#999999" transform="translate(292.5625,358.9375)"/>
<path d="M0 0 C2.31 0 4.62 0 7 0 C7 0.66 7 1.32 7 2 C6.01 2.495 6.01 2.495 5 3 C5.33 3.598125 5.66 4.19625 6 4.8125 C7 7 7 7 7 10 C4.69 10 2.38 10 0 10 C0 6.7 0 3.4 0 0 Z " fill="#9C9C9C" transform="translate(307,359)"/>
<path d="M0 0 C2.33294775 -0.04241723 4.66702567 -0.04092937 7 0 C8 1 8 1 8.1875 4.4375 C8 8 8 8 6 10 C2.875 10.125 2.875 10.125 0 10 C0 6.7 0 3.4 0 0 Z M2 2 C2 3.65 2 5.3 2 7 C3.32 6.67 4.64 6.34 6 6 C5.67 4.68 5.34 3.36 5 2 C4.01 2 3.02 2 2 2 Z " fill="#B6B6B6" transform="translate(246,359)"/>
<path d="M0 0 C1.32 0.33 2.64 0.66 4 1 C4.66 3.97 5.32 6.94 6 10 C5.01 10 4.02 10 3 10 C3 9.34 3 8.68 3 8 C1.68 8 0.36 8 -1 8 C-1 8.66 -1 9.32 -1 10 C-1.66 10 -2.32 10 -3 10 C-2.25 3.375 -2.25 3.375 0 0 Z M1 3 C2 6 2 6 2 6 Z " fill="#A6A6A6" transform="translate(218,359)"/>
<path d="M0 0 C2.31 0 4.62 0 7 0 C7 0.66 7 1.32 7 2 C6.01 2.495 6.01 2.495 5 3 C5.33 3.598125 5.66 4.19625 6 4.8125 C7 7 7 7 7 10 C4.69 10 2.38 10 0 10 C0 6.7 0 3.4 0 0 Z " fill="#A3A3A3" transform="translate(170,359)"/>
<path d="M0 0 C2.31 0 4.62 0 7 0 C7.33 3.3 7.66 6.6 8 10 C7.01 10 6.02 10 5 10 C4.67 8.68 4.34 7.36 4 6 C3.34 6 2.68 6 2 6 C2 7.32 2 8.64 2 10 C1.34 10 0.68 10 0 10 C0 6.7 0 3.4 0 0 Z M2 2 C2 2.66 2 3.32 2 4 C2.99 4 3.98 4 5 4 C5 3.34 5 2.68 5 2 C4.01 2 3.02 2 2 2 Z " fill="#B4B4B4" transform="translate(178,359)"/>
<path d="M0 0 C2.31 0 4.62 0 7 0 C7 3.3 7 6.6 7 10 C6.34 10 5.68 10 5 10 C4.67 8.68 4.34 7.36 4 6 C3.34 6 2.68 6 2 6 C2 7.32 2 8.64 2 10 C1.34 10 0.68 10 0 10 C0 6.7 0 3.4 0 0 Z M2 2 C2 2.66 2 3.32 2 4 C2.99 3.67 3.98 3.34 5 3 C4.01 2.67 3.02 2.34 2 2 Z " fill="#B4B4B4" transform="translate(315,359)"/>
<path d="M0 0 C0.66 0 1.32 0 2 0 C2.33 0.66 2.66 1.32 3 2 C3.66 1.34 4.32 0.68 5 0 C5.99 0.33 6.98 0.66 8 1 C7.34 1.66 6.68 2.32 6 3 C6.26676204 4.98491642 6.26676204 4.98491642 7 7 C7.33 7.99 7.66 8.98 8 10 C7.360625 9.814375 6.72125 9.62875 6.0625 9.4375 C5.0415625 9.2209375 5.0415625 9.2209375 4 9 C3.67 9.33 3.34 9.66 3 10 C2.01 10 1.02 10 0 10 C0 6.7 0 3.4 0 0 Z " fill="#A7A7A7" transform="translate(234,359)"/>
<path d="M0 0 C1.4540625 0.0309375 1.4540625 0.0309375 2.9375 0.0625 C3.2675 1.0525 3.5975 2.0425 3.9375 3.0625 C2.2875 3.0625 0.6375 3.0625 -1.0625 3.0625 C-1.0625 4.0525 -1.0625 5.0425 -1.0625 6.0625 C0.5875 6.0625 2.2375 6.0625 3.9375 6.0625 C3.9375 7.0525 3.9375 8.0425 3.9375 9.0625 C-1.47389241 10.38528481 -1.47389241 10.38528481 -4 9 C-5.57595523 6.12619928 -4.86751033 4.14837291 -4.0625 1.0625 C-3.0625 0.0625 -3.0625 0.0625 0 0 Z " fill="#A7A7A7" transform="translate(229.0625,358.9375)"/>
<path d="M0 0 C2.31 0 4.62 0 7 0 C7.6875 1.8125 7.6875 1.8125 8 4 C6.6875 5.75 6.6875 5.75 5 7 C4.34 7 3.68 7 3 7 C3 7.99 3 8.98 3 10 C2.01 10 1.02 10 0 10 C0 6.7 0 3.4 0 0 Z M3 2 C3 2.66 3 3.32 3 4 C3.66 4 4.32 4 5 4 C5 3.34 5 2.68 5 2 C4.34 2 3.68 2 3 2 Z " fill="#A5A5A5" transform="translate(298,359)"/>
<path d="M0 0 C0.99 0 1.98 0 3 0 C3 0.66 3 1.32 3 2 C5.475 2.99 5.475 2.99 8 4 C7.67 5.32 7.34 6.64 7 8 C2.25 9.125 2.25 9.125 0 8 C0.2784375 7.13375 0.2784375 7.13375 0.5625 6.25 C1.04023546 3.79307475 0.75729364 2.35602466 0 0 Z " fill="#A8A8A8" transform="translate(199,360)"/>
<path d="M0 0 C0.66 0 1.32 0 2 0 C2 2.31 2 4.62 2 7 C3.32 7 4.64 7 6 7 C6 7.99 6 8.98 6 10 C3.69 10 1.38 10 -1 10 C-1.02689216 8.52093108 -1.04634621 7.04172517 -1.0625 5.5625 C-1.07410156 4.73878906 -1.08570313 3.91507812 -1.09765625 3.06640625 C-1 1 -1 1 0 0 Z " fill="#9D9D9D" transform="translate(281,359)"/>
<path d="M0 0 C1.32 0.33 2.64 0.66 4 1 C4.125 3.875 4.125 3.875 4 7 C2 9 2 9 -0.625 9.125 C-1.40875 9.08375 -2.1925 9.0425 -3 9 C-3 8.34 -3 7.68 -3 7 C-1.68 7 -0.36 7 1 7 C0.67 4.69 0.34 2.38 0 0 Z " fill="#B1B1B1" transform="translate(293,360)"/>
<path d="M0 0 C1.32 0 2.64 0 4 0 C4.66 2.31 5.32 4.62 6 7 C5.34 7 4.68 7 4 7 C3.67 7.66 3.34 8.32 3 9 C2.01 6.03 1.02 3.06 0 0 Z " fill="#898989" transform="translate(262,359)"/>
<path d="M0 0 C0.99 0 1.98 0 3 0 C3 3.3 3 6.6 3 10 C2.01 10 1.02 10 0 10 C0 6.7 0 3.4 0 0 Z " fill="#C5C5C5" transform="translate(192,359)"/>
<path d="M0 0 C0.66 0 1.32 0 2 0 C1.51421457 3.12290635 1.0013988 5.99580359 0 9 C-0.99 9 -1.98 9 -3 9 C-3 8.01 -3 7.02 -3 6 C-2.34 6 -1.68 6 -1 6 C-1.0309375 4.7934375 -1.0309375 4.7934375 -1.0625 3.5625 C-1 1 -1 1 0 0 Z " fill="#C2C2C2" transform="translate(269,360)"/>
<path d="M0 0 C0.33 0.99 0.66 1.98 1 3 C2.32 3 3.64 3 5 3 C5.33 4.32 5.66 5.64 6 7 C4.02 7 2.04 7 0 7 C0 4.69 0 2.38 0 0 Z " fill="#B1B1B1" transform="translate(308,360)"/>
<path d="M0 0 C2.31 0 4.62 0 7 0 C7.625 1.875 7.625 1.875 8 4 C7.34 4.66 6.68 5.32 6 6 C5.67 5.01 5.34 4.02 5 3 C2.49552484 1.78130071 2.49552484 1.78130071 0 1 C0 0.67 0 0.34 0 0 Z " fill="#AFAFAF" transform="translate(246,359)"/>
<path d="M0 0 C0.66 0.33 1.32 0.66 2 1 C0.02 2.98 -1.96 4.96 -4 7 C-4.99 6.67 -5.98 6.34 -7 6 C-4.69 4.02 -2.38 2.04 0 0 Z " fill="#B2B2B2" transform="translate(173,140)"/>
<path d="M0 0 C0.99 0 1.98 0 3 0 C3 1.32 3 2.64 3 4 C2.34 4 1.68 4 1 4 C1 5.65 1 7.3 1 9 C0.67 9 0.34 9 0 9 C0 6.03 0 3.06 0 0 Z " fill="#D4D4D4" transform="translate(158,359)"/>
</svg>
